<svg xmlns="http://www.w3.org/2000/svg" viewBox="0 0 120 120" role="img" aria-label="\=">
  <ellipse cx="60" cy="108" rx="28" ry="6" fill="#e8d4e8" opacity=".55"/>
  <path d="M42 78c-2 14 6 22 18 22s20-8 18-22" fill="#b8ded0"/>
  <path d="M38 72c8-6 36-6 44 0v14c0 8-10 14-22 14S38 94 38 86V72z" fill="#c9ebe0"/>
  <circle cx="60" cy="48" r="30" fill="#ffe8d6"/>
  <path d="M30 44c2-18 20-28 30-28s28 10 30 28" fill="#5c4038"/>
  <circle cx="60" cy="52" r="26" fill="#ffe8d6"/>
  <ellipse cx="49" cy="54" rx="5" ry="6" fill="#3d3530"/>
  <ellipse cx="71" cy="54" rx="5" ry="6" fill="#3d3530"/>
  <circle cx="51" cy="52" r="1.8" fill="#fff"/>
  <circle cx="73" cy="52" r="1.8" fill="#fff"/>
  <ellipse cx="44" cy="62" rx="5" ry="3" fill="#f9b4c4" opacity=".65"/>
  <ellipse cx="76" cy="62" rx="5" ry="3" fill="#f9b4c4" opacity=".65"/>
  <path d="M54 66c4 4 8 4 12 0" fill="none" stroke="#d4848f" stroke-width="2" stroke-linecap="round"/>
  <path d="M48 38c-8-2-10 6-4 10M72 38c8-2 10 6 4 10" fill="none" stroke="#5c4038" stroke-width="3" stroke-linecap="round"/>
  <path d="M34 78c-8 4-10 12-4 16M86 78c8 4 10 12 4 16" fill="none" stroke="#c9ebe0" stroke-width="7" stroke-linecap="round"/>
</svg>
